<svg width="24" height="24" viewBox="0 0 24 24" fill="none" xmlns="http://www.w3.org/2000/svg">
<path d="M4.71729 11.3481C3.10742 11.3481 2.32812 10.5688 2.32812 8.91797V4.85742C2.32812 3.2168 3.10742 2.4375 4.71729 2.4375H8.83936C10.4595 2.4375 11.2285 3.2168 11.2285 4.85742V8.91797C11.2285 10.5688 10.4595 11.3481 8.83936 11.3481H4.71729ZM15.1558 11.3481C13.5459 11.3481 12.7666 10.5688 12.7666 8.91797V4.85742C12.7666 3.2168 13.5459 2.4375 15.1558 2.4375H19.2778C20.8877 2.4375 21.667 3.2168 21.667 4.85742V8.91797C21.667 10.5688 20.8877 11.3481 19.2778 11.3481H15.1558ZM4.63525 9.59473H8.92139C9.30078 9.59473 9.48535 9.41016 9.48535 9.01025V4.76514C9.48535 4.37549 9.30078 4.19092 8.92139 4.19092H4.63525C4.25586 4.19092 4.08154 4.37549 4.08154 4.76514V9.01025C4.08154 9.41016 4.25586 9.59473 4.63525 9.59473ZM15.084 9.59473H19.3599C19.7393 9.59473 19.9136 9.41016 19.9136 9.01025V4.76514C19.9136 4.37549 19.7393 4.19092 19.3599 4.19092H15.084C14.6943 4.19092 14.52 4.37549 14.52 4.76514V9.01025C14.52 9.41016 14.6943 9.59473 15.084 9.59473ZM5.83496 8.05664C5.6709 8.05664 5.61963 7.98486 5.61963 7.80029V5.9751C5.61963 5.79053 5.6709 5.729 5.83496 5.729H7.71143C7.87549 5.729 7.94727 5.79053 7.94727 5.9751V7.80029C7.94727 7.98486 7.87549 8.05664 7.71143 8.05664H5.83496ZM16.3145 8.05664C16.1504 8.05664 16.0991 7.98486 16.0991 7.80029V5.9751C16.0991 5.79053 16.1504 5.729 16.3145 5.729H18.1909C18.355 5.729 18.4268 5.79053 18.4268 5.9751V7.80029C18.4268 7.98486 18.355 8.05664 18.1909 8.05664H16.3145ZM4.71729 21.7764C3.10742 21.7764 2.32812 21.0073 2.32812 19.3564V15.2959C2.32812 13.6553 3.10742 12.876 4.71729 12.876H8.83936C10.4595 12.876 11.2285 13.6553 11.2285 15.2959V19.3564C11.2285 21.0073 10.4595 21.7764 8.83936 21.7764H4.71729ZM13.4946 15.6753C13.3408 15.6753 13.2793 15.6138 13.2793 15.4189V13.5938C13.2793 13.4092 13.3408 13.3477 13.4946 13.3477H15.3813C15.5454 13.3477 15.6172 13.4092 15.6172 13.5938V15.4189C15.6172 15.6138 15.5454 15.6753 15.3813 15.6753H13.4946ZM19.0215 15.6753C18.8574 15.6753 18.8062 15.6138 18.8062 15.4189V13.5938C18.8062 13.4092 18.8574 13.3477 19.0215 13.3477H20.9082C21.0723 13.3477 21.1338 13.4092 21.1338 13.5938V15.4189C21.1338 15.6138 21.0723 15.6753 20.9082 15.6753H19.0215ZM4.63525 20.0332H8.92139C9.30078 20.0332 9.48535 19.8486 9.48535 19.459V15.2036C9.48535 14.814 9.30078 14.6294 8.92139 14.6294H4.63525C4.25586 14.6294 4.08154 14.814 4.08154 15.2036V19.459C4.08154 19.8486 4.25586 20.0332 4.63525 20.0332ZM16.2837 18.4336C16.1299 18.4336 16.0684 18.3721 16.0684 18.1772V16.3521C16.0684 16.1777 16.1299 16.106 16.2837 16.106H18.1704C18.3345 16.106 18.396 16.1777 18.396 16.3521V18.1772C18.396 18.3721 18.3345 18.4336 18.1704 18.4336H16.2837ZM5.83496 18.4951C5.6709 18.4951 5.61963 18.4233 5.61963 18.2388V16.4136C5.61963 16.229 5.6709 16.1675 5.83496 16.1675H7.71143C7.87549 16.1675 7.94727 16.229 7.94727 16.4136V18.2388C7.94727 18.4233 7.87549 18.4951 7.71143 18.4951H5.83496ZM13.4946 21.1919C13.3408 21.1919 13.2793 21.1304 13.2793 20.9355V19.1104C13.2793 18.936 13.3408 18.8643 13.4946 18.8643H15.3813C15.5454 18.8643 15.6172 18.936 15.6172 19.1104V20.9355C15.6172 21.1304 15.5454 21.1919 15.3813 21.1919H13.4946ZM19.0215 21.1919C18.8574 21.1919 18.8062 21.1304 18.8062 20.9355V19.1104C18.8062 18.936 18.8574 18.8643 19.0215 18.8643H20.9082C21.0723 18.8643 21.1338 18.936 21.1338 19.1104V20.9355C21.1338 21.1304 21.0723 21.1919 20.9082 21.1919H19.0215Z" fill="currentColor"/>
</svg>
