<svg width="24" height="24" viewBox="0 0 24 24" fill="none" xmlns="http://www.w3.org/2000/svg">
<path d="M5.03906 20.4849V3.69922C5.03906 2.00732 6.22852 0.869141 7.99219 0.869141H16.0518C17.7949 0.869141 18.9536 2.00732 18.9536 3.69922V20.4849C18.9536 22.1768 17.7949 23.3149 16.0518 23.3149H7.99219C6.22852 23.3149 5.03906 22.1768 5.03906 20.4849ZM9.91992 2.86865C9.91992 3.125 10.1045 3.29932 10.3608 3.29932H13.6523C13.9087 3.29932 14.083 3.125 14.083 2.86865C14.083 2.60205 13.9087 2.42773 13.6523 2.42773H10.3608C10.1045 2.42773 9.91992 2.60205 9.91992 2.86865ZM7.04883 19.4595H16.9541V4.73486H7.04883V19.4595ZM12.0117 22.1768C12.5347 22.1768 12.9551 21.7461 12.9551 21.2231C12.9551 20.7002 12.5347 20.2798 12.0117 20.2798C11.4785 20.2798 11.0581 20.7002 11.0581 21.2231C11.0581 21.7461 11.4785 22.1768 12.0117 22.1768Z" fill="currentColor"/>
</svg>
