<svg width="24" height="24" viewBox="0 0 24 24" fill="none" xmlns="http://www.w3.org/2000/svg">
<path d="M0 5C0 3.89543 0.895431 3 2 3H22C23.1046 3 24 3.89543 24 5V19C24 20.1046 23.1046 21 22 21H2C0.89543 21 0 20.1046 0 19V5Z" fill="#012169"/>
<path fill-rule="evenodd" clip-rule="evenodd" d="M2 3C0.895431 3 0 3.89543 0 5V5.4L8.9625 12.075L0 18.75V19C0 20.1046 0.89543 21 2 21H3.0375L12 14.2875L21 21H22C23.1046 21 24 20.1046 24 19V18.7125L15 12.0375L24 5.325V5C24 3.89543 23.1046 3 22 3H21.075L11.9625 9.7875L2.8125 3H2Z" fill="white"/>
<path fill-rule="evenodd" clip-rule="evenodd" d="M1.99992 21.0004H2.02492L9.22492 15.6004L8.99992 14.2879L0.673947 20.4976C1.02689 20.8104 1.49123 21.0004 1.99992 21.0004ZM23.9466 19.4611C23.8499 19.8712 23.627 20.2325 23.3211 20.5019L13.8374 13.5379H15.8999L23.9466 19.4611ZM22.1202 3.00391C22.6157 3.03329 23.0627 3.2431 23.3963 3.56857L14.6624 10.1629L14.7374 8.51285L22.1202 3.00391ZM0.0390625 4.60465C0.126666 4.16815 0.356373 3.78303 0.677871 3.49959L8.96242 9.60035H6.71242L0.0390625 4.60465Z" fill="#C8102E"/>
<path d="M9.0375 3V21H15.0375V3H9.0375ZM0 9V15H24V9H0Z" fill="white"/>
<path d="M0 10.2375V13.8375H24V10.2375H0ZM10.2375 3V21H13.8375V3H10.2375Z" fill="#C8102E"/>
<path fill-rule="evenodd" clip-rule="evenodd" d="M22 3.7H2C1.28203 3.7 0.7 4.28203 0.7 5V19C0.7 19.718 1.28203 20.3 2 20.3H22C22.718 20.3 23.3 19.718 23.3 19V5C23.3 4.28203 22.718 3.7 22 3.7ZM2 3C0.895431 3 0 3.89543 0 5V19C0 20.1046 0.89543 21 2 21H22C23.1046 21 24 20.1046 24 19V5C24 3.89543 23.1046 3 22 3H2Z" fill="#DFDFDF"/>
</svg>
